<svg t="1763183824084" class="icon" viewBox="0 0 1024 1024" version="1.1" xmlns="http://www.w3.org/2000/svg" p-id="26254" width="16" height="16"><path d="M603.500379 570.401397l-0.196544-0.576531-76.809608-225.554519a55.307635 55.307635 0 0 0-52.411879-37.540009h-0.419295a55.294532 55.294532 0 0 0-52.280849 38.299981l-73.37663 226.13105-0.275162 0.83859L305.185069 703.278612a41.929503 41.929503 0 1 0 79.77088 25.878365l33.386366-102.963136h115.568193l35.194576 103.356225A41.929503 41.929503 0 0 0 648.482874 702.51864zM445.54408 542.334836l29.180314-89.96499 30.634743 89.96499zM728.279959 306.730338a41.929503 41.929503 0 0 0-41.929503 41.929503v367.564505a41.929503 41.929503 0 0 0 83.859006 0V348.659841a41.929503 41.929503 0 0 0-41.929503-41.929503z" fill="#3377FF" p-id="26255"></path><path d="M1016.676321 359.469791c-0.458604-2.070269-0.904105-4.232259-1.310297-6.433558-24.476347-126.745025-82.548709-221.440187-172.513698-281.451788C778.202274 28.514984 699.29619 4.62827 608.17814 0.592556c-69.550563-3.066095-125.447831 6.551485-146.268451 10.888567-3.564008 0.733766-6.83975 1.310297-9.997566 1.834416-69.812622 11.045803-131.580021 41.248148-183.572604 89.742239-41.379178 38.601349-76.547549 88.877443-104.522389 149.373854-21.593694 46.72519-50.092653 124.478212-63.929389 230.769502L7.747658 651.980486l-0.694457 1.559253a67.401676 67.401676 0 0 0 61.583957 94.786883h75.826886v208.271702a67.467191 67.467191 0 0 0 67.401676 67.401676h252.638357a41.929503 41.929503 0 0 0 0-83.859006H228.309946v-208.337217a67.480294 67.480294 0 0 0-67.401675-67.401676H96.467866l78.617818-143.988534 0.22275-0.497912a53.132542 53.132542 0 0 0 6.931471-19.785485l0.379986-3.00058c12.329894-97.368167 37.998612-167.718012 57.299287-209.54269 51.586392-111.532478 127.321556-175.972882 225.122121-191.434387 4.468113-0.70756 9.014843-1.54615 13.862942-2.555079 13.836736-2.856447 63.772153-11.963011 125.591964-9.172079 75.617238 3.35436 140.201775 22.524005 191.827476 56.984815 70.638109 47.170691 116.61643 123.678931 136.716385 227.572377 0.563428 2.961271 1.179267 5.896336 1.80821 8.739681 1.703386 7.665237 9.591374 49.332681-2.620594 117.926727-16.116653 90.410491-58.963363 185.721492-127.242938 283.155174a66.916866 66.916866 0 0 0-12.172659 38.627554v161.166527a41.929503 41.929503 0 0 0 83.859006 0v-156.056368C1051.818486 570.244161 1024.066396 392.64651 1016.676321 359.469791z" fill="#3377FF" p-id="26256"></path></svg>